<svg width="100" height="100" viewBox="0 0 100 100" fill="none" xmlns="http://www.w3.org/2000/svg">
<rect width="100" height="100" fill="#191A1F"/>
<path d="M16.4453 74H5.57031L22.1406 26H35.2188L51.7656 74H40.8906L28.8672 36.9687H28.4922L16.4453 74ZM15.7656 55.1328H41.4531V63.0547H15.7656V55.1328ZM82.4863 39.8047C82.2988 37.9141 81.4941 36.4453 80.0723 35.3984C78.6504 34.3516 76.7207 33.8281 74.2832 33.8281C72.627 33.8281 71.2285 34.0625 70.0879 34.5312C68.9473 34.9844 68.0723 35.6172 67.4629 36.4297C66.8691 37.2422 66.5723 38.1641 66.5723 39.1953C66.541 40.0547 66.7207 40.8047 67.1113 41.4453C67.5176 42.0859 68.0723 42.6406 68.7754 43.1094C69.4785 43.5625 70.291 43.9609 71.2129 44.3047C72.1348 44.6328 73.1191 44.9141 74.166 45.1484L78.4785 46.1797C80.5723 46.6484 82.4941 47.2734 84.2441 48.0547C85.9941 48.8359 87.5098 49.7969 88.791 50.9375C90.0723 52.0781 91.0645 53.4219 91.7676 54.9687C92.4863 56.5156 92.8535 58.2891 92.8691 60.2891C92.8535 63.2266 92.1035 65.7734 90.6191 67.9297C89.1504 70.0703 87.0254 71.7344 84.2441 72.9219C81.4785 74.0937 78.1426 74.6797 74.2363 74.6797C70.3613 74.6797 66.9863 74.0859 64.1113 72.8984C61.252 71.7109 59.0176 69.9531 57.4082 67.625C55.8145 65.2812 54.9785 62.3828 54.9004 58.9297H64.7207C64.8301 60.5391 65.291 61.8828 66.1035 62.9609C66.9316 64.0234 68.0332 64.8281 69.4082 65.375C70.7988 65.9062 72.3691 66.1719 74.1191 66.1719C75.8379 66.1719 77.3301 65.9219 78.5957 65.4219C79.877 64.9219 80.8691 64.2266 81.5723 63.3359C82.2754 62.4453 82.627 61.4219 82.627 60.2656C82.627 59.1875 82.3066 58.2812 81.666 57.5469C81.041 56.8125 80.1191 56.1875 78.9004 55.6719C77.6973 55.1562 76.2207 54.6875 74.4707 54.2656L69.2441 52.9531C65.1973 51.9687 62.002 50.4297 59.6582 48.3359C57.3145 46.2422 56.1504 43.4219 56.166 39.875C56.1504 36.9687 56.9238 34.4297 58.4863 32.2578C60.0645 30.0859 62.2285 28.3906 64.9785 27.1719C67.7285 25.9531 70.8535 25.3437 74.3535 25.3437C77.916 25.3437 81.0254 25.9531 83.6816 27.1719C86.3535 28.3906 88.4316 30.0859 89.916 32.2578C91.4004 34.4297 92.166 36.9453 92.2129 39.8047H82.4863Z" fill="#FF312E"/>
</svg>
